# xmcd
# Track frame offsets:
# 154
# 19436
# 36680
# 59114
# 73339
# 87845
# 104484
# 118690
# 136506
# 161286
#
# Disc length: 2442 seconds
# Revision: 1
# Processed by: cddbd v1.5.2PL0 Copyright (c) Steve Scherf et al.
# Submitted via: VisiTrax 2.10.3.257 - For more info visit www.synapsa.com
#
DISCID=9209880a
DTITLE=Decemberists, The - The King Is Dead
DYEAR=2011
DGENRE=Country
TTITLE0=Don't Carry It All
TTITLE1=Calamity Song
TTITLE2=Rise To Me
TTITLE3=Rox In The Box
TTITLE4=January Hymn
TTITLE5=Down By The Water
TTITLE6=All Arise!
TTITLE7=June Hymn
TTITLE8=This Is Why We Fight
TTITLE9=Dear Avery
EXTD=Produced by Tucker Martine and The Decemberists. Recorded and mixed b
EXTD=y Tucker Martine. Recorded Spring/Summer 2010, Pendarvis Farm, Happy V
EXTD=alley, OR and Flora, Portland, OR. Mixed at Flora, September 2010. Add
EXTD=itional vocals recorded at Sound Factory, Hollywood, CA. Assisted by C
EXTD=linton Welander at Sound Factory. Studio Intern: Andy Schichter. Maste
EXTD=red by Stephen Marcussen, Marcussen Mastering, Hollywood, CA. CAPITO
EXTD=L 509999 47547 2 8.
EXTT0=
EXTT1=
EXTT2=
EXTT3=
EXTT4=
EXTT5=
EXTT6=
EXTT7=
EXTT8=
EXTT9=
PLAYORDER=
